
<svg width="320" height="120" viewBox="0 0 320 120" fill="none" xmlns="http://www.w3.org/2000/svg">
  <defs>
    <linearGradient id="orbit" x1="20" y1="20" x2="120" y2="100" gradientUnits="userSpaceOnUse">
      <stop offset="0" stop-color="#38BDF8"/>
      <stop offset="0.5" stop-color="#3B82F6"/>
      <stop offset="1" stop-color="#10B981"/>
    </linearGradient>
    <linearGradient id="book" x1="80" y1="32" x2="80" y2="92" gradientUnits="userSpaceOnUse">
      <stop offset="0" stop-color="#FFFFFF" stop-opacity="0.95"/>
      <stop offset="1" stop-color="#E2E8F0" stop-opacity="0.9"/>
    </linearGradient>
  </defs>

  <!-- Orbital ring -->
  <circle cx="80" cy="60" r="34" stroke="url(#orbit)" stroke-width="6"/>
  <circle cx="100" cy="38" r="4.5" fill="#38BDF8"/>
  <circle cx="56" cy="86" r="3.5" fill="#10B981"/>

  <!-- Open book -->
  <path
    d="M54 40C54 35.5817 57.5817 32 62 32H78C82.4183 32 86 35.5817 86 40V88C86 90.2091 84.2091 92 82 92H62C57.5817 92 54 88.4183 54 84V40Z"
    fill="url(#book)"
  />
  <path
    d="M86 40C86 35.5817 89.5817 32 94 32H110C114.418 32 118 35.5817 118 40V84C118 88.4183 114.418 92 110 92H90C87.7909 92 86 90.2091 86 88V40Z"
    fill="url(#book)"
  />
  <path d="M64 48H78" stroke="#94A3B8" stroke-width="2" stroke-linecap="round"/>
  <path d="M64 56H78" stroke="#94A3B8" stroke-width="2" stroke-linecap="round"/>
  <path d="M64 64H78" stroke="#94A3B8" stroke-width="2" stroke-linecap="round"/>
  <path d="M96 48H110" stroke="#94A3B8" stroke-width="2" stroke-linecap="round"/>
  <path d="M96 56H110" stroke="#94A3B8" stroke-width="2" stroke-linecap="round"/>
  <path d="M96 64H110" stroke="#94A3B8" stroke-width="2" stroke-linecap="round"/>

  <!-- Wordmark -->
  <text x="150" y="58" fill="#E2E8F0" font-size="22" font-family="var(--font-geist-sans), system-ui, sans-serif" font-weight="600">
    Grinnish
  </text>
</svg>
